<svg width="80" height="80" viewBox="0 0 80 80" fill="none" xmlns="http://www.w3.org/2000/svg">
<mask id="path-2-outside-1" maskUnits="userSpaceOnUse" x="3" y="1" width="75" height="78" fill="black">
<rect fill="white" x="3" y="1" width="75" height="78"/>
<path d="M77 39.8936C77 39.5119 76.9763 39.1344 76.9425 38.7587C76.9323 38.6489 76.9214 38.5416 76.9087 38.4327C76.8732 38.1321 76.8275 37.8332 76.7708 37.5368C76.7556 37.4599 76.7463 37.3814 76.7302 37.3062C76.6584 36.9659 76.5696 36.6307 76.4698 36.2996C76.4334 36.1764 76.392 36.0548 76.3514 35.9323C76.2711 35.6925 76.1848 35.456 76.0901 35.223C76.047 35.1166 76.0081 35.0085 75.9624 34.9038C75.8271 34.5896 75.6775 34.2823 75.5176 33.9808C75.4694 33.8921 75.4187 33.8052 75.368 33.7173C75.231 33.4733 75.0847 33.2335 74.9299 32.9987C74.8809 32.9219 74.8318 32.8459 74.7811 32.7707C74.5722 32.4676 74.3524 32.172 74.119 31.8866C74.1122 31.879 74.1046 31.8714 74.0995 31.8646C73.8653 31.5817 73.6167 31.3124 73.3588 31.0506C73.3182 31.0109 73.2793 30.9712 73.2396 30.9324C72.7001 30.3995 72.1115 29.9131 71.4782 29.4808C71.4367 29.452 71.3936 29.4259 71.3513 29.3963C71.0723 29.2114 70.7856 29.0383 70.4905 28.8744C70.4397 28.8466 70.3899 28.8162 70.3383 28.7892C70.2909 28.7638 70.2469 28.7351 70.1996 28.7098C71.0342 27.0707 71.4705 25.2611 71.4705 23.3915C71.4705 16.9095 66.1939 11.6343 59.7038 11.6258C58.6959 6.12511 53.8624 2 48.1181 2C45.3175 2 42.6166 3.01418 40.5 4.80609C38.3826 3.01418 35.6825 2 32.8819 2C27.1376 2 22.3041 6.12511 21.2945 11.6292C14.8052 11.6376 9.52861 16.9129 9.52861 23.3948C9.52861 25.2644 9.9641 27.0732 10.7996 28.7132C10.7522 28.7376 10.7082 28.7664 10.6609 28.7925C10.6085 28.8187 10.5594 28.8491 10.5078 28.8778C10.2136 29.0416 9.92605 29.2148 9.64784 29.3997C9.60556 29.4284 9.56244 29.4546 9.521 29.4841C8.88679 29.9165 8.29909 30.4029 7.75875 30.9357C7.719 30.9746 7.6801 31.0143 7.64036 31.054C7.38245 31.3157 7.13299 31.5851 6.8996 31.868C6.89284 31.8756 6.88607 31.8832 6.881 31.89C6.64592 32.1754 6.42691 32.4709 6.21804 32.7741C6.16646 32.8492 6.11826 32.9252 6.06837 33.0021C5.91447 33.236 5.76902 33.4767 5.63119 33.7207C5.58045 33.8085 5.52887 33.8938 5.48151 33.9842C5.32169 34.2848 5.17202 34.593 5.03587 34.9072C4.99021 35.0119 4.95047 35.1191 4.90988 35.2247C4.81602 35.4577 4.72807 35.6959 4.64774 35.9357C4.60715 36.0581 4.56571 36.1789 4.52851 36.303C4.43042 36.6349 4.34078 36.9693 4.2689 37.3096C4.25284 37.3856 4.24269 37.4641 4.22747 37.5401C4.17166 37.8365 4.126 38.1346 4.09048 38.4361C4.07949 38.5416 4.06765 38.6489 4.0575 38.7587C4.02283 39.1336 4 39.5119 4 39.8936C4 44.3472 6.34657 48.4233 10.0986 50.6822C9.21658 52.3568 8.75741 54.2145 8.75741 56.1356C8.75741 62.4884 13.826 67.6817 20.1368 67.8945C20.8801 73.5878 25.7711 78 31.6701 78C35.1295 78 38.2059 76.9453 40.5 75.0149C42.795 76.9453 45.8713 78 49.329 78C55.2297 78 60.119 73.5878 60.8623 67.8945C67.174 67.6817 72.2426 62.4892 72.2426 56.1356C72.2426 54.2145 71.7834 52.3568 70.9023 50.6822C74.6534 48.4233 77 44.3472 77 39.8936ZM39.0371 20.7982C37.9513 21.5692 36.217 21.8546 34.4327 21.5244C32.0709 21.087 30.1878 19.7376 29.3954 17.9136C29.0741 17.173 28.2133 16.8344 27.47 17.1552C26.7292 17.4761 26.3893 18.3375 26.7106 19.078C27.8911 21.7955 30.5793 23.7833 33.9 24.3997C34.568 24.523 35.2318 24.5838 35.8796 24.5838C37.0042 24.5838 38.079 24.4006 39.0379 24.0527V72.4123C37.2444 74.135 34.6526 75.0782 31.671 75.0782C26.8797 75.0782 22.9781 71.1887 22.9679 66.4049C22.9679 66.399 22.9696 66.3931 22.9696 66.3872C22.9696 64.1123 23.8313 62.1388 25.4599 60.6821C27.059 59.2533 29.2644 58.4655 31.6727 58.4655C32.4811 58.4655 33.1356 57.8119 33.1356 57.0046C33.1356 56.1981 32.4811 55.5437 31.6727 55.5437C30.3239 55.5437 29.0234 55.7497 27.8023 56.1255C28.1744 53.7932 27.8556 51.3688 26.8078 49.2154C26.4561 48.4892 25.5792 48.1869 24.8519 48.539C24.1247 48.892 23.822 49.7652 24.1746 50.4922C25.3052 52.8178 25.3145 55.5673 24.2338 57.9174C23.9843 58.1049 23.7391 58.2974 23.5074 58.5052C21.6234 60.1881 20.4641 62.4453 20.1427 64.9609C15.4445 64.7515 11.6841 60.8806 11.6841 56.1382C11.6841 54.2694 12.2633 52.4817 13.3575 50.9685L14.423 49.4975L12.7555 48.7729C9.21404 47.2344 6.92582 43.7502 6.92582 39.8961C6.92582 39.5972 6.94358 39.3008 6.97148 39.0069C6.98078 38.9081 6.99431 38.8102 7.00615 38.7114C7.02983 38.518 7.05942 38.3255 7.09409 38.1355C7.11523 38.024 7.13638 37.9117 7.16005 37.8019C7.20233 37.6144 7.25138 37.432 7.30381 37.2488C7.33087 37.1525 7.35454 37.0554 7.38498 36.96C7.46785 36.7008 7.56087 36.4474 7.66488 36.1983C7.70378 36.1046 7.74944 36.0125 7.79088 35.9205C7.86783 35.7508 7.94732 35.5827 8.03357 35.418C8.08431 35.3226 8.13673 35.228 8.19085 35.1335C8.28556 34.9654 8.38619 34.8008 8.49105 34.6395C8.53925 34.5652 8.58575 34.49 8.63649 34.4174C8.96628 33.9394 9.33581 33.4919 9.74424 33.0815C9.77215 33.0528 9.80259 33.0257 9.83219 32.997C10.0123 32.8197 10.2 32.65 10.3928 32.487C10.4385 32.449 10.4833 32.4127 10.529 32.3755C10.7209 32.2193 10.9188 32.0724 11.1217 31.9322C11.1623 31.9052 11.2021 31.8756 11.2427 31.8469C11.7272 31.5235 12.243 31.244 12.7834 31.01C12.8662 30.9746 12.9516 30.9433 13.0362 30.9104C14.1457 30.4679 15.3515 30.2171 16.6165 30.2171C19.8772 30.2171 22.6466 31.814 24.3886 34.642C22.6043 35.5616 21.034 36.9119 19.8349 38.6286C19.3715 39.2898 19.5347 40.201 20.1977 40.6637C20.4531 40.8411 20.7448 40.9264 21.034 40.9264C21.4957 40.9264 21.9507 40.7085 22.2348 40.3015C24.3091 37.3324 27.8336 35.7837 31.4215 36.2549C32.2206 36.3604 32.958 35.7972 33.0637 34.9975C33.1694 34.1978 32.6054 33.4632 31.8046 33.3576C30.2241 33.149 28.6572 33.2478 27.1689 33.6092C24.934 29.637 21.0661 27.2953 16.6165 27.2953C15.5654 27.2953 14.549 27.4389 13.5715 27.6821C12.8426 26.3749 12.4544 24.914 12.4544 23.3965C12.4544 18.5216 16.4263 14.5535 21.3097 14.5535C21.664 14.5535 22.0217 14.5763 22.4014 14.6236L23.9539 14.8161L24.0419 13.2564C24.3074 8.58498 28.1896 4.92431 32.881 4.92431C35.1777 4.92431 37.3907 5.82449 39.0354 7.41036V20.7982H39.0371ZM68.2437 48.7704L66.5761 49.4949L67.6416 50.966C68.7375 52.4792 69.3151 54.2669 69.3151 56.1356C69.3151 60.8747 65.5614 64.7422 60.8691 64.9576C60.4877 61.8939 58.8946 59.1039 56.4584 57.2123C57.4562 55.83 58.1581 54.228 58.4659 52.5028C58.6071 51.7082 58.0769 50.9491 57.2812 50.8072C56.4846 50.667 55.7261 51.1956 55.5832 51.9894C54.9676 55.4424 52.2447 58.2434 48.8064 58.9612C48.0141 59.1258 47.5084 59.901 47.6733 60.6906C47.8179 61.3796 48.4259 61.8542 49.1033 61.8542C49.2022 61.8542 49.3037 61.8441 49.4043 61.823C51.2892 61.4295 53.0091 60.5622 54.4441 59.3631C56.6766 60.9878 58.0329 63.5912 58.0329 66.3838V66.3923C58.0278 71.1811 54.1245 75.0765 49.3282 75.0765C46.3483 75.0765 43.7556 74.1333 41.9621 72.4106V44.1792C42.6276 44.2028 43.4664 44.2239 44.3509 44.2239C45.4857 44.2239 46.6857 44.1884 47.6792 44.0804C47.9837 45.412 48.4521 46.6466 49.0889 47.5206C49.3747 47.9141 49.8212 48.1227 50.2736 48.1227C50.5721 48.1227 50.874 48.0324 51.1327 47.844C51.7864 47.3686 51.931 46.4549 51.4566 45.8022C50.1924 44.0635 49.899 39.826 50.4537 38.4445C50.7539 37.6964 50.3911 36.8443 49.6402 36.5445C48.8902 36.2456 48.0378 36.6079 47.7367 37.3569C47.3655 38.2824 47.2209 39.6825 47.2894 41.1873C45.8967 41.3292 43.704 41.3165 41.9621 41.254V21.4543C41.9621 21.4535 41.9621 21.4535 41.9621 21.4535V7.40867C43.6059 5.8228 45.8206 4.92262 48.1164 4.92262C52.3792 4.92262 55.9629 7.94827 56.784 12.0058C54.4247 12.6045 52.2819 13.9134 50.6761 15.8168C50.1552 16.4332 50.2338 17.3554 50.852 17.8756C51.126 18.1069 51.4608 18.2192 51.794 18.2192C52.21 18.2192 52.6244 18.0428 52.9136 17.7008C54.3714 15.973 56.4119 14.8862 58.6265 14.6211C58.9944 14.5763 59.3428 14.5527 59.6886 14.5527C64.5695 14.5527 68.543 18.5199 68.543 23.3957C68.543 24.9132 68.1549 26.374 67.426 27.6812C66.4493 27.438 65.4329 27.2945 64.3809 27.2945C62.3312 27.2945 60.3372 27.7927 58.542 28.7317C57.3412 27.5943 55.9096 26.684 54.297 26.0785C53.5385 25.7905 52.6954 26.1756 52.4121 26.9331C52.128 27.6888 52.5102 28.5308 53.2687 28.8153C56.6622 30.0888 59.0367 33.1136 59.4662 36.71C59.555 37.4532 60.1875 37.9978 60.9182 37.9978C60.9757 37.9978 61.0348 37.9944 61.094 37.9877C61.8965 37.8923 62.4698 37.1644 62.3734 36.363C62.1426 34.4267 61.472 32.6212 60.459 31.0472C61.6868 30.5042 63.017 30.2171 64.3818 30.2171C65.6468 30.2171 66.8535 30.4679 67.9621 30.9104C68.0467 30.9433 68.1321 30.9746 68.2149 31.01C68.7553 31.244 69.2711 31.5235 69.7556 31.8469C69.7962 31.8748 69.8351 31.9043 69.8766 31.9322C70.0795 32.0724 70.2782 32.2201 70.4685 32.3755C70.515 32.4127 70.5598 32.449 70.6055 32.487C70.7991 32.6491 70.9852 32.8197 71.1661 32.997C71.194 33.0249 71.2245 33.0519 71.2532 33.0815C71.6616 33.4919 72.032 33.9394 72.3618 34.4174C72.4117 34.49 72.4591 34.5652 72.5073 34.6395C72.6121 34.8008 72.7127 34.9654 72.8075 35.1335C72.8607 35.228 72.914 35.3226 72.9647 35.418C73.051 35.5819 73.1305 35.7508 73.2074 35.9205C73.2497 36.0125 73.2954 36.1046 73.3343 36.1983C73.4374 36.4474 73.5304 36.7016 73.6133 36.96C73.6438 37.0546 73.6674 37.1525 73.6945 37.2488C73.7478 37.432 73.796 37.6153 73.8374 37.8019C73.8619 37.9117 73.8831 38.024 73.9042 38.1355C73.9389 38.3255 73.9676 38.5172 73.9922 38.7114C74.0048 38.8093 74.0184 38.9073 74.0268 39.0069C74.0539 39.3008 74.0733 39.5964 74.0733 39.8961C74.0733 43.7476 71.7851 47.231 68.2437 48.7704Z"/>
</mask>
<path d="M77 39.8936C77 39.5119 76.9763 39.1344 76.9425 38.7587C76.9323 38.6489 76.9214 38.5416 76.9087 38.4327C76.8732 38.1321 76.8275 37.8332 76.7708 37.5368C76.7556 37.4599 76.7463 37.3814 76.7302 37.3062C76.6584 36.9659 76.5696 36.6307 76.4698 36.2996C76.4334 36.1764 76.392 36.0548 76.3514 35.9323C76.2711 35.6925 76.1848 35.456 76.0901 35.223C76.047 35.1166 76.0081 35.0085 75.9624 34.9038C75.8271 34.5896 75.6775 34.2823 75.5176 33.9808C75.4694 33.8921 75.4187 33.8052 75.368 33.7173C75.231 33.4733 75.0847 33.2335 74.9299 32.9987C74.8809 32.9219 74.8318 32.8459 74.7811 32.7707C74.5722 32.4676 74.3524 32.172 74.119 31.8866C74.1122 31.879 74.1046 31.8714 74.0995 31.8646C73.8653 31.5817 73.6167 31.3124 73.3588 31.0506C73.3182 31.0109 73.2793 30.9712 73.2396 30.9324C72.7001 30.3995 72.1115 29.9131 71.4782 29.4808C71.4367 29.452 71.3936 29.4259 71.3513 29.3963C71.0723 29.2114 70.7856 29.0383 70.4905 28.8744C70.4397 28.8466 70.3899 28.8162 70.3383 28.7892C70.2909 28.7638 70.2469 28.7351 70.1996 28.7098C71.0342 27.0707 71.4705 25.2611 71.4705 23.3915C71.4705 16.9095 66.1939 11.6343 59.7038 11.6258C58.6959 6.12511 53.8624 2 48.1181 2C45.3175 2 42.6166 3.01418 40.5 4.80609C38.3826 3.01418 35.6825 2 32.8819 2C27.1376 2 22.3041 6.12511 21.2945 11.6292C14.8052 11.6376 9.52861 16.9129 9.52861 23.3948C9.52861 25.2644 9.9641 27.0732 10.7996 28.7132C10.7522 28.7376 10.7082 28.7664 10.6609 28.7925C10.6085 28.8187 10.5594 28.8491 10.5078 28.8778C10.2136 29.0416 9.92605 29.2148 9.64784 29.3997C9.60556 29.4284 9.56244 29.4546 9.521 29.4841C8.88679 29.9165 8.29909 30.4029 7.75875 30.9357C7.719 30.9746 7.6801 31.0143 7.64036 31.054C7.38245 31.3157 7.13299 31.5851 6.8996 31.868C6.89284 31.8756 6.88607 31.8832 6.881 31.89C6.64592 32.1754 6.42691 32.4709 6.21804 32.7741C6.16646 32.8492 6.11826 32.9252 6.06837 33.0021C5.91447 33.236 5.76902 33.4767 5.63119 33.7207C5.58045 33.8085 5.52887 33.8938 5.48151 33.9842C5.32169 34.2848 5.17202 34.593 5.03587 34.9072C4.99021 35.0119 4.95047 35.1191 4.90988 35.2247C4.81602 35.4577 4.72807 35.6959 4.64774 35.9357C4.60715 36.0581 4.56571 36.1789 4.52851 36.303C4.43042 36.6349 4.34078 36.9693 4.2689 37.3096C4.25284 37.3856 4.24269 37.4641 4.22747 37.5401C4.17166 37.8365 4.126 38.1346 4.09048 38.4361C4.07949 38.5416 4.06765 38.6489 4.0575 38.7587C4.02283 39.1336 4 39.5119 4 39.8936C4 44.3472 6.34657 48.4233 10.0986 50.6822C9.21658 52.3568 8.75741 54.2145 8.75741 56.1356C8.75741 62.4884 13.826 67.6817 20.1368 67.8945C20.8801 73.5878 25.7711 78 31.6701 78C35.1295 78 38.2059 76.9453 40.5 75.0149C42.795 76.9453 45.8713 78 49.329 78C55.2297 78 60.119 73.5878 60.8623 67.8945C67.174 67.6817 72.2426 62.4892 72.2426 56.1356C72.2426 54.2145 71.7834 52.3568 70.9023 50.6822C74.6534 48.4233 77 44.3472 77 39.8936ZM39.0371 20.7982C37.9513 21.5692 36.217 21.8546 34.4327 21.5244C32.0709 21.087 30.1878 19.7376 29.3954 17.9136C29.0741 17.173 28.2133 16.8344 27.47 17.1552C26.7292 17.4761 26.3893 18.3375 26.7106 19.078C27.8911 21.7955 30.5793 23.7833 33.9 24.3997C34.568 24.523 35.2318 24.5838 35.8796 24.5838C37.0042 24.5838 38.079 24.4006 39.0379 24.0527V72.4123C37.2444 74.135 34.6526 75.0782 31.671 75.0782C26.8797 75.0782 22.9781 71.1887 22.9679 66.4049C22.9679 66.399 22.9696 66.3931 22.9696 66.3872C22.9696 64.1123 23.8313 62.1388 25.4599 60.6821C27.059 59.2533 29.2644 58.4655 31.6727 58.4655C32.4811 58.4655 33.1356 57.8119 33.1356 57.0046C33.1356 56.1981 32.4811 55.5437 31.6727 55.5437C30.3239 55.5437 29.0234 55.7497 27.8023 56.1255C28.1744 53.7932 27.8556 51.3688 26.8078 49.2154C26.4561 48.4892 25.5792 48.1869 24.8519 48.539C24.1247 48.892 23.822 49.7652 24.1746 50.4922C25.3052 52.8178 25.3145 55.5673 24.2338 57.9174C23.9843 58.1049 23.7391 58.2974 23.5074 58.5052C21.6234 60.1881 20.4641 62.4453 20.1427 64.9609C15.4445 64.7515 11.6841 60.8806 11.6841 56.1382C11.6841 54.2694 12.2633 52.4817 13.3575 50.9685L14.423 49.4975L12.7555 48.7729C9.21404 47.2344 6.92582 43.7502 6.92582 39.8961C6.92582 39.5972 6.94358 39.3008 6.97148 39.0069C6.98078 38.9081 6.99431 38.8102 7.00615 38.7114C7.02983 38.518 7.05942 38.3255 7.09409 38.1355C7.11523 38.024 7.13638 37.9117 7.16005 37.8019C7.20233 37.6144 7.25138 37.432 7.30381 37.2488C7.33087 37.1525 7.35454 37.0554 7.38498 36.96C7.46785 36.7008 7.56087 36.4474 7.66488 36.1983C7.70378 36.1046 7.74944 36.0125 7.79088 35.9205C7.86783 35.7508 7.94732 35.5827 8.03357 35.418C8.08431 35.3226 8.13673 35.228 8.19085 35.1335C8.28556 34.9654 8.38619 34.8008 8.49105 34.6395C8.53925 34.5652 8.58575 34.49 8.63649 34.4174C8.96628 33.9394 9.33581 33.4919 9.74424 33.0815C9.77215 33.0528 9.80259 33.0257 9.83219 32.997C10.0123 32.8197 10.2 32.65 10.3928 32.487C10.4385 32.449 10.4833 32.4127 10.529 32.3755C10.7209 32.2193 10.9188 32.0724 11.1217 31.9322C11.1623 31.9052 11.2021 31.8756 11.2427 31.8469C11.7272 31.5235 12.243 31.244 12.7834 31.01C12.8662 30.9746 12.9516 30.9433 13.0362 30.9104C14.1457 30.4679 15.3515 30.2171 16.6165 30.2171C19.8772 30.2171 22.6466 31.814 24.3886 34.642C22.6043 35.5616 21.034 36.9119 19.8349 38.6286C19.3715 39.2898 19.5347 40.201 20.1977 40.6637C20.4531 40.8411 20.7448 40.9264 21.034 40.9264C21.4957 40.9264 21.9507 40.7085 22.2348 40.3015C24.3091 37.3324 27.8336 35.7837 31.4215 36.2549C32.2206 36.3604 32.958 35.7972 33.0637 34.9975C33.1694 34.1978 32.6054 33.4632 31.8046 33.3576C30.2241 33.149 28.6572 33.2478 27.1689 33.6092C24.934 29.637 21.0661 27.2953 16.6165 27.2953C15.5654 27.2953 14.549 27.4389 13.5715 27.6821C12.8426 26.3749 12.4544 24.914 12.4544 23.3965C12.4544 18.5216 16.4263 14.5535 21.3097 14.5535C21.664 14.5535 22.0217 14.5763 22.4014 14.6236L23.9539 14.8161L24.0419 13.2564C24.3074 8.58498 28.1896 4.92431 32.881 4.92431C35.1777 4.92431 37.3907 5.82449 39.0354 7.41036V20.7982H39.0371ZM68.2437 48.7704L66.5761 49.4949L67.6416 50.966C68.7375 52.4792 69.3151 54.2669 69.3151 56.1356C69.3151 60.8747 65.5614 64.7422 60.8691 64.9576C60.4877 61.8939 58.8946 59.1039 56.4584 57.2123C57.4562 55.83 58.1581 54.228 58.4659 52.5028C58.6071 51.7082 58.0769 50.9491 57.2812 50.8072C56.4846 50.667 55.7261 51.1956 55.5832 51.9894C54.9676 55.4424 52.2447 58.2434 48.8064 58.9612C48.0141 59.1258 47.5084 59.901 47.6733 60.6906C47.8179 61.3796 48.4259 61.8542 49.1033 61.8542C49.2022 61.8542 49.3037 61.8441 49.4043 61.823C51.2892 61.4295 53.0091 60.5622 54.4441 59.3631C56.6766 60.9878 58.0329 63.5912 58.0329 66.3838V66.3923C58.0278 71.1811 54.1245 75.0765 49.3282 75.0765C46.3483 75.0765 43.7556 74.1333 41.9621 72.4106V44.1792C42.6276 44.2028 43.4664 44.2239 44.3509 44.2239C45.4857 44.2239 46.6857 44.1884 47.6792 44.0804C47.9837 45.412 48.4521 46.6466 49.0889 47.5206C49.3747 47.9141 49.8212 48.1227 50.2736 48.1227C50.5721 48.1227 50.874 48.0324 51.1327 47.844C51.7864 47.3686 51.931 46.4549 51.4566 45.8022C50.1924 44.0635 49.899 39.826 50.4537 38.4445C50.7539 37.6964 50.3911 36.8443 49.6402 36.5445C48.8902 36.2456 48.0378 36.6079 47.7367 37.3569C47.3655 38.2824 47.2209 39.6825 47.2894 41.1873C45.8967 41.3292 43.704 41.3165 41.9621 41.254V21.4543C41.9621 21.4535 41.9621 21.4535 41.9621 21.4535V7.40867C43.6059 5.8228 45.8206 4.92262 48.1164 4.92262C52.3792 4.92262 55.9629 7.94827 56.784 12.0058C54.4247 12.6045 52.2819 13.9134 50.6761 15.8168C50.1552 16.4332 50.2338 17.3554 50.852 17.8756C51.126 18.1069 51.4608 18.2192 51.794 18.2192C52.21 18.2192 52.6244 18.0428 52.9136 17.7008C54.3714 15.973 56.4119 14.8862 58.6265 14.6211C58.9944 14.5763 59.3428 14.5527 59.6886 14.5527C64.5695 14.5527 68.543 18.5199 68.543 23.3957C68.543 24.9132 68.1549 26.374 67.426 27.6812C66.4493 27.438 65.4329 27.2945 64.3809 27.2945C62.3312 27.2945 60.3372 27.7927 58.542 28.7317C57.3412 27.5943 55.9096 26.684 54.297 26.0785C53.5385 25.7905 52.6954 26.1756 52.4121 26.9331C52.128 27.6888 52.5102 28.5308 53.2687 28.8153C56.6622 30.0888 59.0367 33.1136 59.4662 36.71C59.555 37.4532 60.1875 37.9978 60.9182 37.9978C60.9757 37.9978 61.0348 37.9944 61.094 37.9877C61.8965 37.8923 62.4698 37.1644 62.3734 36.363C62.1426 34.4267 61.472 32.6212 60.459 31.0472C61.6868 30.5042 63.017 30.2171 64.3818 30.2171C65.6468 30.2171 66.8535 30.4679 67.9621 30.9104C68.0467 30.9433 68.1321 30.9746 68.2149 31.01C68.7553 31.244 69.2711 31.5235 69.7556 31.8469C69.7962 31.8748 69.8351 31.9043 69.8766 31.9322C70.0795 32.0724 70.2782 32.2201 70.4685 32.3755C70.515 32.4127 70.5598 32.449 70.6055 32.487C70.7991 32.6491 70.9852 32.8197 71.1661 32.997C71.194 33.0249 71.2245 33.0519 71.2532 33.0815C71.6616 33.4919 72.032 33.9394 72.3618 34.4174C72.4117 34.49 72.4591 34.5652 72.5073 34.6395C72.6121 34.8008 72.7127 34.9654 72.8075 35.1335C72.8607 35.228 72.914 35.3226 72.9647 35.418C73.051 35.5819 73.1305 35.7508 73.2074 35.9205C73.2497 36.0125 73.2954 36.1046 73.3343 36.1983C73.4374 36.4474 73.5304 36.7016 73.6133 36.96C73.6438 37.0546 73.6674 37.1525 73.6945 37.2488C73.7478 37.432 73.796 37.6153 73.8374 37.8019C73.8619 37.9117 73.8831 38.024 73.9042 38.1355C73.9389 38.3255 73.9676 38.5172 73.9922 38.7114C74.0048 38.8093 74.0184 38.9073 74.0268 39.0069C74.0539 39.3008 74.0733 39.5964 74.0733 39.8961C74.0733 43.7476 71.7851 47.231 68.2437 48.7704Z" fill="#323537"/>
<path d="M77 39.8936C77 39.5119 76.9763 39.1344 76.9425 38.7587C76.9323 38.6489 76.9214 38.5416 76.9087 38.4327C76.8732 38.1321 76.8275 37.8332 76.7708 37.5368C76.7556 37.4599 76.7463 37.3814 76.7302 37.3062C76.6584 36.9659 76.5696 36.6307 76.4698 36.2996C76.4334 36.1764 76.392 36.0548 76.3514 35.9323C76.2711 35.6925 76.1848 35.456 76.0901 35.223C76.047 35.1166 76.0081 35.0085 75.9624 34.9038C75.8271 34.5896 75.6775 34.2823 75.5176 33.9808C75.4694 33.8921 75.4187 33.8052 75.368 33.7173C75.231 33.4733 75.0847 33.2335 74.9299 32.9987C74.8809 32.9219 74.8318 32.8459 74.7811 32.7707C74.5722 32.4676 74.3524 32.172 74.119 31.8866C74.1122 31.879 74.1046 31.8714 74.0995 31.8646C73.8653 31.5817 73.6167 31.3124 73.3588 31.0506C73.3182 31.0109 73.2793 30.9712 73.2396 30.9324C72.7001 30.3995 72.1115 29.9131 71.4782 29.4808C71.4367 29.452 71.3936 29.4259 71.3513 29.3963C71.0723 29.2114 70.7856 29.0383 70.4905 28.8744C70.4397 28.8466 70.3899 28.8162 70.3383 28.7892C70.2909 28.7638 70.2469 28.7351 70.1996 28.7098C71.0342 27.0707 71.4705 25.2611 71.4705 23.3915C71.4705 16.9095 66.1939 11.6343 59.7038 11.6258C58.6959 6.12511 53.8624 2 48.1181 2C45.3175 2 42.6166 3.01418 40.5 4.80609C38.3826 3.01418 35.6825 2 32.8819 2C27.1376 2 22.3041 6.12511 21.2945 11.6292C14.8052 11.6376 9.52861 16.9129 9.52861 23.3948C9.52861 25.2644 9.9641 27.0732 10.7996 28.7132C10.7522 28.7376 10.7082 28.7664 10.6609 28.7925C10.6085 28.8187 10.5594 28.8491 10.5078 28.8778C10.2136 29.0416 9.92605 29.2148 9.64784 29.3997C9.60556 29.4284 9.56244 29.4546 9.521 29.4841C8.88679 29.9165 8.29909 30.4029 7.75875 30.9357C7.719 30.9746 7.6801 31.0143 7.64036 31.054C7.38245 31.3157 7.13299 31.5851 6.8996 31.868C6.89284 31.8756 6.88607 31.8832 6.881 31.89C6.64592 32.1754 6.42691 32.4709 6.21804 32.7741C6.16646 32.8492 6.11826 32.9252 6.06837 33.0021C5.91447 33.236 5.76902 33.4767 5.63119 33.7207C5.58045 33.8085 5.52887 33.8938 5.48151 33.9842C5.32169 34.2848 5.17202 34.593 5.03587 34.9072C4.99021 35.0119 4.95047 35.1191 4.90988 35.2247C4.81602 35.4577 4.72807 35.6959 4.64774 35.9357C4.60715 36.0581 4.56571 36.1789 4.52851 36.303C4.43042 36.6349 4.34078 36.9693 4.2689 37.3096C4.25284 37.3856 4.24269 37.4641 4.22747 37.5401C4.17166 37.8365 4.126 38.1346 4.09048 38.4361C4.07949 38.5416 4.06765 38.6489 4.0575 38.7587C4.02283 39.1336 4 39.5119 4 39.8936C4 44.3472 6.34657 48.4233 10.0986 50.6822C9.21658 52.3568 8.75741 54.2145 8.75741 56.1356C8.75741 62.4884 13.826 67.6817 20.1368 67.8945C20.8801 73.5878 25.7711 78 31.6701 78C35.1295 78 38.2059 76.9453 40.5 75.0149C42.795 76.9453 45.8713 78 49.329 78C55.2297 78 60.119 73.5878 60.8623 67.8945C67.174 67.6817 72.2426 62.4892 72.2426 56.1356C72.2426 54.2145 71.7834 52.3568 70.9023 50.6822C74.6534 48.4233 77 44.3472 77 39.8936ZM39.0371 20.7982C37.9513 21.5692 36.217 21.8546 34.4327 21.5244C32.0709 21.087 30.1878 19.7376 29.3954 17.9136C29.0741 17.173 28.2133 16.8344 27.47 17.1552C26.7292 17.4761 26.3893 18.3375 26.7106 19.078C27.8911 21.7955 30.5793 23.7833 33.9 24.3997C34.568 24.523 35.2318 24.5838 35.8796 24.5838C37.0042 24.5838 38.079 24.4006 39.0379 24.0527V72.4123C37.2444 74.135 34.6526 75.0782 31.671 75.0782C26.8797 75.0782 22.9781 71.1887 22.9679 66.4049C22.9679 66.399 22.9696 66.3931 22.9696 66.3872C22.9696 64.1123 23.8313 62.1388 25.4599 60.6821C27.059 59.2533 29.2644 58.4655 31.6727 58.4655C32.4811 58.4655 33.1356 57.8119 33.1356 57.0046C33.1356 56.1981 32.4811 55.5437 31.6727 55.5437C30.3239 55.5437 29.0234 55.7497 27.8023 56.1255C28.1744 53.7932 27.8556 51.3688 26.8078 49.2154C26.4561 48.4892 25.5792 48.1869 24.8519 48.539C24.1247 48.892 23.822 49.7652 24.1746 50.4922C25.3052 52.8178 25.3145 55.5673 24.2338 57.9174C23.9843 58.1049 23.7391 58.2974 23.5074 58.5052C21.6234 60.1881 20.4641 62.4453 20.1427 64.9609C15.4445 64.7515 11.6841 60.8806 11.6841 56.1382C11.6841 54.2694 12.2633 52.4817 13.3575 50.9685L14.423 49.4975L12.7555 48.7729C9.21404 47.2344 6.92582 43.7502 6.92582 39.8961C6.92582 39.5972 6.94358 39.3008 6.97148 39.0069C6.98078 38.9081 6.99431 38.8102 7.00615 38.7114C7.02983 38.518 7.05942 38.3255 7.09409 38.1355C7.11523 38.024 7.13638 37.9117 7.16005 37.8019C7.20233 37.6144 7.25138 37.432 7.30381 37.2488C7.33087 37.1525 7.35454 37.0554 7.38498 36.96C7.46785 36.7008 7.56087 36.4474 7.66488 36.1983C7.70378 36.1046 7.74944 36.0125 7.79088 35.9205C7.86783 35.7508 7.94732 35.5827 8.03357 35.418C8.08431 35.3226 8.13673 35.228 8.19085 35.1335C8.28556 34.9654 8.38619 34.8008 8.49105 34.6395C8.53925 34.5652 8.58575 34.49 8.63649 34.4174C8.96628 33.9394 9.33581 33.4919 9.74424 33.0815C9.77215 33.0528 9.80259 33.0257 9.83219 32.997C10.0123 32.8197 10.2 32.65 10.3928 32.487C10.4385 32.449 10.4833 32.4127 10.529 32.3755C10.7209 32.2193 10.9188 32.0724 11.1217 31.9322C11.1623 31.9052 11.2021 31.8756 11.2427 31.8469C11.7272 31.5235 12.243 31.244 12.7834 31.01C12.8662 30.9746 12.9516 30.9433 13.0362 30.9104C14.1457 30.4679 15.3515 30.2171 16.6165 30.2171C19.8772 30.2171 22.6466 31.814 24.3886 34.642C22.6043 35.5616 21.034 36.9119 19.8349 38.6286C19.3715 39.2898 19.5347 40.201 20.1977 40.6637C20.4531 40.8411 20.7448 40.9264 21.034 40.9264C21.4957 40.9264 21.9507 40.7085 22.2348 40.3015C24.3091 37.3324 27.8336 35.7837 31.4215 36.2549C32.2206 36.3604 32.958 35.7972 33.0637 34.9975C33.1694 34.1978 32.6054 33.4632 31.8046 33.3576C30.2241 33.149 28.6572 33.2478 27.1689 33.6092C24.934 29.637 21.0661 27.2953 16.6165 27.2953C15.5654 27.2953 14.549 27.4389 13.5715 27.6821C12.8426 26.3749 12.4544 24.914 12.4544 23.3965C12.4544 18.5216 16.4263 14.5535 21.3097 14.5535C21.664 14.5535 22.0217 14.5763 22.4014 14.6236L23.9539 14.8161L24.0419 13.2564C24.3074 8.58498 28.1896 4.92431 32.881 4.92431C35.1777 4.92431 37.3907 5.82449 39.0354 7.41036V20.7982H39.0371ZM68.2437 48.7704L66.5761 49.4949L67.6416 50.966C68.7375 52.4792 69.3151 54.2669 69.3151 56.1356C69.3151 60.8747 65.5614 64.7422 60.8691 64.9576C60.4877 61.8939 58.8946 59.1039 56.4584 57.2123C57.4562 55.83 58.1581 54.228 58.4659 52.5028C58.6071 51.7082 58.0769 50.9491 57.2812 50.8072C56.4846 50.667 55.7261 51.1956 55.5832 51.9894C54.9676 55.4424 52.2447 58.2434 48.8064 58.9612C48.0141 59.1258 47.5084 59.901 47.6733 60.6906C47.8179 61.3796 48.4259 61.8542 49.1033 61.8542C49.2022 61.8542 49.3037 61.8441 49.4043 61.823C51.2892 61.4295 53.0091 60.5622 54.4441 59.3631C56.6766 60.9878 58.0329 63.5912 58.0329 66.3838V66.3923C58.0278 71.1811 54.1245 75.0765 49.3282 75.0765C46.3483 75.0765 43.7556 74.1333 41.9621 72.4106V44.1792C42.6276 44.2028 43.4664 44.2239 44.3509 44.2239C45.4857 44.2239 46.6857 44.1884 47.6792 44.0804C47.9837 45.412 48.4521 46.6466 49.0889 47.5206C49.3747 47.9141 49.8212 48.1227 50.2736 48.1227C50.5721 48.1227 50.874 48.0324 51.1327 47.844C51.7864 47.3686 51.931 46.4549 51.4566 45.8022C50.1924 44.0635 49.899 39.826 50.4537 38.4445C50.7539 37.6964 50.3911 36.8443 49.6402 36.5445C48.8902 36.2456 48.0378 36.6079 47.7367 37.3569C47.3655 38.2824 47.2209 39.6825 47.2894 41.1873C45.8967 41.3292 43.704 41.3165 41.9621 41.254V21.4543C41.9621 21.4535 41.9621 21.4535 41.9621 21.4535V7.40867C43.6059 5.8228 45.8206 4.92262 48.1164 4.92262C52.3792 4.92262 55.9629 7.94827 56.784 12.0058C54.4247 12.6045 52.2819 13.9134 50.6761 15.8168C50.1552 16.4332 50.2338 17.3554 50.852 17.8756C51.126 18.1069 51.4608 18.2192 51.794 18.2192C52.21 18.2192 52.6244 18.0428 52.9136 17.7008C54.3714 15.973 56.4119 14.8862 58.6265 14.6211C58.9944 14.5763 59.3428 14.5527 59.6886 14.5527C64.5695 14.5527 68.543 18.5199 68.543 23.3957C68.543 24.9132 68.1549 26.374 67.426 27.6812C66.4493 27.438 65.4329 27.2945 64.3809 27.2945C62.3312 27.2945 60.3372 27.7927 58.542 28.7317C57.3412 27.5943 55.9096 26.684 54.297 26.0785C53.5385 25.7905 52.6954 26.1756 52.4121 26.9331C52.128 27.6888 52.5102 28.5308 53.2687 28.8153C56.6622 30.0888 59.0367 33.1136 59.4662 36.71C59.555 37.4532 60.1875 37.9978 60.9182 37.9978C60.9757 37.9978 61.0348 37.9944 61.094 37.9877C61.8965 37.8923 62.4698 37.1644 62.3734 36.363C62.1426 34.4267 61.472 32.6212 60.459 31.0472C61.6868 30.5042 63.017 30.2171 64.3818 30.2171C65.6468 30.2171 66.8535 30.4679 67.9621 30.9104C68.0467 30.9433 68.1321 30.9746 68.2149 31.01C68.7553 31.244 69.2711 31.5235 69.7556 31.8469C69.7962 31.8748 69.8351 31.9043 69.8766 31.9322C70.0795 32.0724 70.2782 32.2201 70.4685 32.3755C70.515 32.4127 70.5598 32.449 70.6055 32.487C70.7991 32.6491 70.9852 32.8197 71.1661 32.997C71.194 33.0249 71.2245 33.0519 71.2532 33.0815C71.6616 33.4919 72.032 33.9394 72.3618 34.4174C72.4117 34.49 72.4591 34.5652 72.5073 34.6395C72.6121 34.8008 72.7127 34.9654 72.8075 35.1335C72.8607 35.228 72.914 35.3226 72.9647 35.418C73.051 35.5819 73.1305 35.7508 73.2074 35.9205C73.2497 36.0125 73.2954 36.1046 73.3343 36.1983C73.4374 36.4474 73.5304 36.7016 73.6133 36.96C73.6438 37.0546 73.6674 37.1525 73.6945 37.2488C73.7478 37.432 73.796 37.6153 73.8374 37.8019C73.8619 37.9117 73.8831 38.024 73.9042 38.1355C73.9389 38.3255 73.9676 38.5172 73.9922 38.7114C74.0048 38.8093 74.0184 38.9073 74.0268 39.0069C74.0539 39.3008 74.0733 39.5964 74.0733 39.8961C74.0733 43.7476 71.7851 47.231 68.2437 48.7704Z" stroke="#323537" stroke-width="2" mask="url(#path-2-outside-1)"/>
</svg>
